# xmcd
#
# Track frame offsets: 
#        150
#        15827
#        42369
#        66875
#        81545
#        100077
#        116861
#        138735
#        155008
#        171579
#        184665
#        199086
#
# Disc length: 2920 seconds
#
# Revision: 0
# Processed by: cddbd v1.4PL0 Copyright (c) Steve Scherf et al.
# Submitted via: ExactAudioCopy v0.95a3
#
DISCID=ab0b660c
DTITLE=Lou Ann Barton with Rockola and Stevie Ray Vaughan - The Thunderb
DTITLE=road
DYEAR=1999
DGENRE=Blues
TTITLE0=Young and Dumb
TTITLE1=I Feel Like Breaking Up Somebody's Home
TTITLE2=He's Gotta Use His Head To Turn Me On
TTITLE3=Someday
TTITLE4=Diving Duck
TTITLE5=Scratch My Back
TTITLE6=Rock 'N Roll 800
TTITLE7=Not Even Me
TTITLE8=Natural Born Lover
TTITLE9=Te Ni Nee Ni Nu
TTITLE10=I'll Change That Too
TTITLE11=Shake A Hand
EXTD=
EXTT0=
EXTT1=
EXTT2=
EXTT3=
EXTT4=
EXTT5=
EXTT6=
EXTT7=
EXTT8=
EXTT9=
EXTT10=
EXTT11=
PLAYORDER=
